<?xml version="1.0" encoding="UTF-8" standalone="no"?>
<!DOCTYPE svg PUBLIC "-//W3C//DTD SVG 1.1//EN" "http://www.w3.org/Graphics/SVG/1.1/DTD/svg11.dtd">
<svg xmlns="http://www.w3.org/2000/svg" version="1.1" viewBox="0.00 0.00 528.00 528.00">
<path fill="#000000" d="
  M 248.78 139.96
  Q 348.54 140.06 449.00 140.09
  C 470.80 140.09 489.86 153.97 495.07 175.17
  Q 496.48 180.91 496.49 195.07
  Q 496.52 291.04 496.51 387.00
  C 496.50 414.23 475.77 434.45 448.50 434.45
  Q 264.00 434.51 79.50 434.43
  C 57.19 434.42 37.90 420.62 32.79 398.75
  Q 31.51 393.28 31.51 381.01
  Q 31.49 261.13 31.59 141.25
  C 31.61 114.32 51.98 93.77 79.00 93.97
  Q 133.00 94.36 187.00 94.79
  C 196.06 94.86 203.01 97.62 209.75 104.00
  Q 227.95 121.24 245.46 138.59
  A 4.77 4.76 -22.5 0 0 248.78 139.96
  Z
  M 252.84 170.95
  C 239.65 170.93 232.85 169.40 223.84 160.66
  Q 206.00 143.37 188.40 126.28
  A 1.80 1.79 -22.5 0 0 187.18 125.78
  Q 133.91 125.30 82.40 124.83
  C 67.81 124.69 62.50 130.31 62.50 144.76
  Q 62.49 265.38 62.51 385.99
  C 62.51 398.61 69.68 403.50 81.51 403.50
  Q 263.29 403.50 445.07 403.50
  C 460.81 403.50 465.50 397.95 465.50 382.34
  Q 465.51 285.84 465.49 189.34
  C 465.49 176.21 458.84 170.97 446.20 170.98
  Q 349.52 171.06 252.84 170.95
  Z"
/>
<path fill="#242424" d="
  M 343.57 284.60
  C 375.41 301.57 369.55 348.36 334.92 357.52
  Q 329.70 358.91 319.95 358.93
  Q 265.56 359.09 211.18 358.95
  C 160.32 358.83 144.95 291.34 191.49 269.41
  Q 191.93 269.20 191.97 268.70
  Q 194.44 235.04 222.03 221.03
  C 241.84 210.98 264.55 214.25 281.42 228.58
  C 284.10 230.85 286.80 234.02 289.25 236.89
  Q 289.59 237.29 290.12 237.24
  C 319.12 233.94 342.17 254.94 343.06 283.80
  Q 343.08 284.35 343.57 284.60
  Z
  M 327.52 294.12
  A 0.60 0.60 0.0 0 1 327.06 293.34
  C 335.99 266.76 308.75 242.94 283.12 253.95
  A 0.57 0.56 66.3 0 1 282.37 253.65
  C 273.85 234.39 252.36 224.59 232.82 231.81
  C 214.06 238.76 202.51 258.76 207.75 278.75
  A 1.03 1.03 0.0 0 1 206.87 280.03
  C 171.58 284.11 167.24 333.45 201.41 343.20
  Q 206.09 344.54 214.72 344.53
  Q 267.61 344.45 320.50 344.53
  Q 328.12 344.54 332.35 343.23
  C 345.27 339.21 353.25 325.86 349.15 312.42
  Q 344.50 297.20 327.52 294.12
  Z"
/>
</svg>
