<svg xmlns="http://www.w3.org/2000/svg" version="1.1" viewBox="0.00 0.00 512.00 512.00">
<path fill="none" stroke-width="1.00" stroke="#000000" vector-effect="non-scaling-stroke" d="
  M 207.59 98.09
  Q 222.89 112.76 238.08 127.65
  A 1.28 1.27 -22.7 0 0 238.97 128.01
  Q 342.77 127.99 446.49 127.98
  C 469.16 127.97 489.03 142.15 494.51 164.26
  Q 495.98 170.17 495.98 183.98
  Q 496.02 283.62 495.97 383.25
  C 495.96 405.74 481.27 425.21 459.32 430.53
  Q 453.27 431.99 439.44 431.99
  Q 255.87 432.01 72.31 431.99
  Q 58.50 431.99 52.44 430.51
  C 35.56 426.37 21.75 412.72 17.48 395.72
  Q 16.01 389.86 16.01 377.04
  Q 15.99 257.14 16.00 137.25
  Q 16.00 123.32 17.35 117.35
  C 21.69 98.24 38.15 83.25 57.77 80.72
  Q 60.98 80.31 77.75 80.43
  Q 127.00 80.81 176.25 81.13
  C 191.14 81.22 197.65 88.57 207.59 98.09
  Z
  M 241.54 159.94
  C 228.32 159.93 222.27 156.77 212.40 147.22
  Q 195.14 130.54 177.89 113.76
  A 1.47 1.47 0.0 0 0 176.85 113.33
  Q 122.49 112.83 68.89 112.31
  Q 61.23 112.24 57.80 113.63
  C 49.89 116.83 48.01 123.43 48.01 131.87
  Q 47.99 256.37 48.01 380.87
  C 48.01 394.84 54.66 400.00 68.09 400.00
  Q 256.51 400.00 444.94 400.00
  C 452.99 400.00 459.36 397.89 462.52 390.45
  Q 464.01 386.97 464.00 378.84
  Q 463.99 279.68 464.00 180.51
  C 464.01 166.22 458.67 159.97 444.04 159.98
  Q 342.79 160.06 241.54 159.94
  Z"
/>
</svg>